<svg width="47" height="47" viewBox="0 0 47 47" fill="none" xmlns="http://www.w3.org/2000/svg">
<g id="mingcute:copper-coin-fill">
<g id="Group">
<path id="Vector" d="M23.5003 3.91663C34.3162 3.91663 43.0837 12.6841 43.0837 23.5C43.0837 34.3158 34.3162 43.0833 23.5003 43.0833C12.6845 43.0833 3.91699 34.3158 3.91699 23.5C3.91699 12.6841 12.6845 3.91663 23.5003 3.91663ZM22.1158 16.5753L16.5757 22.1154C16.2085 22.4827 16.0023 22.9807 16.0023 23.5C16.0023 24.0192 16.2085 24.5173 16.5757 24.8845L22.1158 30.4246C22.483 30.7918 22.981 30.998 23.5003 30.998C24.0196 30.998 24.5176 30.7918 24.8849 30.4246L30.425 24.8845C30.7921 24.5173 30.9984 24.0192 30.9984 23.5C30.9984 22.9807 30.7921 22.4827 30.425 22.1154L24.8849 16.5753C24.5176 16.2082 24.0196 16.0019 23.5003 16.0019C22.981 16.0019 22.483 16.2082 22.1158 16.5753Z" fill="#FFD37B"/>
</g>
</g>
</svg>
