<svg xmlns="http://www.w3.org/2000/svg" width="231" height="231" viewBox="0 0 231 231" fill="none">
  <mask id="mask0_26_797" style="mask-type:luminance" maskUnits="userSpaceOnUse" x="17" y="17" width="196" height="198">
    <path d="M57.75 38.4999C43.0623 60.238 28.9376 66.4606 19.25 62.5624C21.8632 71.3837 40.6319 83.6171 52.5862 90.6578C57.7356 93.6897 59.2419 100.596 55.6566 105.379C49.0971 114.138 40.0159 126.516 38.5 129.937C4.59112 191.489 79.3196 214.868 115.5 211.75C222.068 202.568 218.271 119.364 202.125 86.6249C163.375 153.971 103.56 115.091 105.875 101.062C108.19 87.034 124.124 89.8252 129.938 67.3749C139.625 22.9459 78.7999 1.92013 57.75 38.4999Z" fill="white" stroke="white" stroke-width="4" stroke-linecap="round" stroke-linejoin="round"/>
    <path d="M91.4375 149.188C103.469 166.031 139.562 182.875 168.438 158.812" stroke="black" stroke-width="4" stroke-linecap="round" stroke-linejoin="round"/>
    <path d="M81.8125 67.375C87.1282 67.375 91.4375 63.0657 91.4375 57.75C91.4375 52.4343 87.1282 48.125 81.8125 48.125C76.4968 48.125 72.1875 52.4343 72.1875 57.75C72.1875 63.0657 76.4968 67.375 81.8125 67.375Z" fill="black"/>
  </mask>
  <g mask="url(#mask0_26_797)">
    <path d="M0 0H231V231H0V0Z" fill="#C8E2DD"/>
  </g>
</svg>