<svg width="479" height="296" viewBox="0 0 479 296" fill="none" xmlns="http://www.w3.org/2000/svg">
<path d="M38.2719 278.984C33.6668 278.984 29.7356 278.142 26.4783 276.457C23.221 274.772 20.3288 272.329 17.8016 269.128L23.193 263.737C25.0462 266.32 27.1803 268.286 29.5952 269.634C32.01 270.925 34.9865 271.571 38.5246 271.571C42.0065 271.571 44.7864 270.813 46.8643 269.297C48.9984 267.78 50.0654 265.703 50.0654 263.063C50.0654 260.873 49.56 259.104 48.5491 257.756C47.5382 256.408 46.1623 255.313 44.4214 254.471C42.7366 253.572 40.8833 252.786 38.8615 252.112C36.8398 251.382 34.818 250.624 32.7963 249.837C30.7745 248.995 28.9213 247.984 27.2365 246.805C25.5517 245.569 24.1758 243.969 23.1087 242.003C22.0978 240.038 21.5924 237.567 21.5924 234.59C21.5924 231.277 22.3786 228.469 23.9511 226.166C25.5798 223.807 27.77 222.01 30.5218 220.775C33.3298 219.483 36.4747 218.837 39.9567 218.837C43.7755 218.837 47.2013 219.595 50.2339 221.112C53.2665 222.572 55.7375 224.509 57.647 226.924L52.2556 232.316C50.5147 230.294 48.6333 228.778 46.6116 227.767C44.646 226.756 42.3715 226.25 39.7882 226.25C36.6432 226.25 34.1441 226.952 32.2908 228.356C30.4376 229.704 29.5109 231.614 29.5109 234.085C29.5109 236.05 30.0164 237.651 31.0272 238.886C32.0943 240.066 33.4702 241.077 35.155 241.919C36.8398 242.761 38.6931 243.548 40.7148 244.278C42.7927 244.952 44.8426 245.71 46.8643 246.552C48.8861 247.394 50.7393 248.462 52.4241 249.753C54.1089 251.045 55.4567 252.73 56.4676 254.808C57.5347 256.829 58.0682 259.385 58.0682 262.473C58.0682 267.64 56.2711 271.684 52.6768 274.604C49.1388 277.524 44.3371 278.984 38.2719 278.984ZM73.5419 278.142V221.364H81.1235V278.142H73.5419ZM63.6859 245.036V238.128H90.9795V245.036H63.6859ZM115.452 278.984C111.521 278.984 107.983 278.058 104.838 276.204C101.693 274.351 99.1942 271.852 97.341 268.707C95.4877 265.506 94.561 261.94 94.561 258.009C94.561 254.134 95.4877 250.652 97.341 247.563C99.1942 244.418 101.693 241.919 104.838 240.066C107.983 238.212 111.521 237.286 115.452 237.286C119.327 237.286 122.837 238.212 125.982 240.066C129.184 241.863 131.711 244.334 133.564 247.479C135.417 250.624 136.344 254.134 136.344 258.009C136.344 261.94 135.417 265.506 133.564 268.707C131.711 271.852 129.184 274.351 125.982 276.204C122.837 278.058 119.327 278.984 115.452 278.984ZM115.452 271.656C117.98 271.656 120.226 271.066 122.192 269.886C124.157 268.707 125.702 267.107 126.825 265.085C127.948 263.007 128.51 260.648 128.51 258.009C128.51 255.425 127.92 253.123 126.741 251.101C125.617 249.079 124.073 247.507 122.107 246.384C120.198 245.204 117.98 244.615 115.452 244.615C112.925 244.615 110.679 245.204 108.713 246.384C106.748 247.507 105.203 249.079 104.08 251.101C102.957 253.123 102.395 255.425 102.395 258.009C102.395 260.648 102.957 263.007 104.08 265.085C105.203 267.107 106.748 268.707 108.713 269.886C110.679 271.066 112.925 271.656 115.452 271.656ZM144.886 278.142V238.128H152.468V278.142H144.886ZM152.468 255.313L149.604 254.049C149.604 248.939 150.783 244.867 153.142 241.835C155.501 238.802 158.898 237.286 163.335 237.286C165.357 237.286 167.182 237.651 168.81 238.381C170.439 239.055 171.955 240.206 173.359 241.835L168.389 246.973C167.547 246.075 166.62 245.429 165.609 245.036C164.598 244.643 163.419 244.446 162.071 244.446C159.263 244.446 156.961 245.345 155.164 247.142C153.366 248.939 152.468 251.663 152.468 255.313ZM191.098 278.479L173.745 238.128H182.169L195.058 269.718H192.362L205.925 238.128H214.348L195.647 278.479H191.098ZM179.642 294.906L191.435 270.729L195.647 278.479L188.066 294.906H179.642ZM241.301 278.984C238.269 278.984 235.517 278.367 233.046 277.131C230.631 275.839 228.693 274.07 227.233 271.824C225.773 269.578 224.959 267.022 224.79 264.158V252.112C224.959 249.192 225.773 246.636 227.233 244.446C228.75 242.2 230.715 240.459 233.13 239.223C235.601 237.932 238.325 237.286 241.301 237.286C244.952 237.286 248.237 238.212 251.157 240.066C254.134 241.919 256.464 244.418 258.149 247.563C259.834 250.708 260.676 254.246 260.676 258.177C260.676 262.108 259.834 265.646 258.149 268.791C256.464 271.936 254.134 274.435 251.157 276.289C248.237 278.086 244.952 278.984 241.301 278.984ZM240.038 271.824C242.565 271.824 244.783 271.234 246.693 270.055C248.602 268.876 250.118 267.275 251.242 265.253C252.365 263.175 252.926 260.789 252.926 258.093C252.926 255.453 252.365 253.095 251.242 251.017C250.118 248.939 248.602 247.338 246.693 246.215C244.783 245.036 242.593 244.446 240.122 244.446C237.595 244.446 235.376 245.036 233.467 246.215C231.558 247.338 230.069 248.939 229.002 251.017C227.935 253.095 227.402 255.482 227.402 258.177C227.402 260.817 227.907 263.175 228.918 265.253C229.985 267.275 231.473 268.876 233.383 270.055C235.348 271.234 237.567 271.824 240.038 271.824ZM220.241 278.142V217.995H227.823V247.9L226.391 257.587L227.823 267.359V278.142H220.241ZM269.271 278.142V238.128H276.853V278.142H269.271ZM276.853 255.313L273.989 254.049C273.989 248.939 275.168 244.867 277.527 241.835C279.886 238.802 283.283 237.286 287.72 237.286C289.742 237.286 291.567 237.651 293.195 238.381C294.824 239.055 296.34 240.206 297.744 241.835L292.774 246.973C291.932 246.075 291.005 245.429 289.994 245.036C288.984 244.643 287.804 244.446 286.456 244.446C283.648 244.446 281.346 245.345 279.549 247.142C277.752 248.939 276.853 251.663 276.853 255.313ZM303.167 278.142V238.128H310.748V278.142H303.167ZM306.957 230.125C305.553 230.125 304.402 229.676 303.504 228.778C302.605 227.823 302.156 226.643 302.156 225.239C302.156 223.892 302.605 222.768 303.504 221.87C304.402 220.915 305.553 220.438 306.957 220.438C308.361 220.438 309.513 220.915 310.411 221.87C311.31 222.768 311.759 223.892 311.759 225.239C311.759 226.643 311.31 227.823 310.411 228.778C309.513 229.676 308.361 230.125 306.957 230.125ZM338.853 278.984C335.147 278.984 331.833 278.086 328.913 276.289C325.993 274.435 323.662 271.936 321.921 268.791C320.236 265.646 319.394 262.108 319.394 258.177C319.394 254.246 320.236 250.708 321.921 247.563C323.662 244.418 325.993 241.919 328.913 240.066C331.833 238.212 335.147 237.286 338.853 237.286C341.83 237.286 344.526 237.932 346.94 239.223C349.355 240.459 351.293 242.2 352.753 244.446C354.269 246.636 355.112 249.192 355.28 252.112V264.158C355.112 267.022 354.297 269.578 352.837 271.824C351.377 274.07 349.439 275.839 347.025 277.131C344.61 278.367 341.886 278.984 338.853 278.984ZM340.117 271.824C342.644 271.824 344.834 271.234 346.688 270.055C348.597 268.876 350.085 267.275 351.152 265.253C352.219 263.175 352.753 260.817 352.753 258.177C352.753 255.425 352.191 253.039 351.068 251.017C350.001 248.995 348.513 247.394 346.603 246.215C344.75 245.036 342.56 244.446 340.033 244.446C337.506 244.446 335.287 245.036 333.378 246.215C331.468 247.394 329.952 249.023 328.829 251.101C327.762 253.123 327.228 255.453 327.228 258.093C327.228 260.789 327.762 263.175 328.829 265.253C329.952 267.275 331.468 268.876 333.378 270.055C335.343 271.234 337.59 271.824 340.117 271.824ZM359.913 278.142H352.247V267.359L353.68 257.587L352.247 247.9V217.995H359.913V278.142ZM387.547 295.748C383.447 295.748 379.796 294.99 376.595 293.474C373.45 291.957 370.923 289.823 369.014 287.071L373.9 282.101C375.528 284.179 377.466 285.752 379.712 286.819C381.959 287.942 384.626 288.503 387.715 288.503C391.815 288.503 395.044 287.408 397.403 285.218C399.817 283.084 401.025 280.192 401.025 276.541V266.601L402.373 257.587L401.025 248.658V238.128H408.606V276.541C408.606 280.36 407.708 283.702 405.911 286.566C404.17 289.43 401.699 291.676 398.498 293.305C395.353 294.934 391.702 295.748 387.547 295.748ZM387.547 277.468C383.896 277.468 380.611 276.598 377.69 274.857C374.826 273.116 372.552 270.729 370.867 267.696C369.182 264.607 368.34 261.154 368.34 257.335C368.34 253.516 369.182 250.118 370.867 247.142C372.552 244.109 374.826 241.722 377.69 239.981C380.611 238.184 383.896 237.286 387.547 237.286C390.691 237.286 393.471 237.903 395.886 239.139C398.301 240.375 400.211 242.115 401.615 244.362C403.075 246.552 403.861 249.135 403.973 252.112V262.726C403.805 265.646 402.99 268.23 401.53 270.476C400.126 272.666 398.217 274.379 395.802 275.615C393.387 276.85 390.635 277.468 387.547 277.468ZM389.063 270.308C391.534 270.308 393.696 269.774 395.549 268.707C397.459 267.64 398.919 266.152 399.93 264.242C400.941 262.277 401.446 260.002 401.446 257.419C401.446 254.836 400.913 252.589 399.845 250.68C398.835 248.714 397.403 247.198 395.549 246.131C393.696 245.008 391.506 244.446 388.979 244.446C386.451 244.446 384.233 245.008 382.324 246.131C380.414 247.198 378.898 248.714 377.775 250.68C376.708 252.589 376.174 254.808 376.174 257.335C376.174 259.862 376.708 262.108 377.775 264.074C378.898 266.04 380.414 267.584 382.324 268.707C384.289 269.774 386.536 270.308 389.063 270.308ZM438.267 278.984C434.28 278.984 430.686 278.086 427.485 276.289C424.284 274.435 421.756 271.936 419.903 268.791C418.05 265.646 417.123 262.08 417.123 258.093C417.123 254.162 418.022 250.624 419.819 247.479C421.672 244.334 424.143 241.863 427.232 240.066C430.377 238.212 433.887 237.286 437.762 237.286C441.468 237.286 444.726 238.128 447.534 239.813C450.398 241.498 452.616 243.828 454.189 246.805C455.817 249.781 456.632 253.151 456.632 256.914C456.632 257.475 456.604 258.093 456.547 258.767C456.491 259.385 456.379 260.115 456.21 260.957H422.43V254.639H452.167L449.387 257.082C449.387 254.386 448.91 252.112 447.955 250.259C447 248.349 445.652 246.889 443.911 245.878C442.17 244.811 440.064 244.278 437.593 244.278C435.01 244.278 432.736 244.839 430.77 245.962C428.804 247.086 427.288 248.658 426.221 250.68C425.154 252.702 424.621 255.088 424.621 257.84C424.621 260.648 425.182 263.119 426.305 265.253C427.429 267.331 429.029 268.96 431.107 270.139C433.185 271.262 435.572 271.824 438.267 271.824C440.514 271.824 442.564 271.431 444.417 270.645C446.326 269.858 447.955 268.679 449.303 267.107L454.189 272.077C452.279 274.323 449.92 276.036 447.113 277.215C444.361 278.395 441.412 278.984 438.267 278.984Z" fill="url(#paint0_linear_42_1008)"/>
<path d="M13 189.279C40.3779 123.994 117.297 15.1326 241.55 13.0266C365.804 10.9206 448.94 134.524 465.788 189.279M124.618 206.805C153.299 168.742 190.806 140.579 241.55 139.437C292.295 138.296 334.434 177.526 354.29 206.805M59.1842 112.008L139.159 189.279M155.593 43.0345L200.433 146.902M335.506 44.0696L281.935 146.902M422.649 112.008L340.56 189.279" stroke="url(#paint1_linear_42_1008)" stroke-width="25.2719" stroke-linecap="round"/>
<defs>
<linearGradient id="paint0_linear_42_1008" x1="282.567" y1="181.506" x2="411.032" y2="417.377" gradientUnits="userSpaceOnUse">
<stop stop-color="#066F6C"/>
<stop offset="1"/>
</linearGradient>
<linearGradient id="paint1_linear_42_1008" x1="239.394" y1="13" x2="322.581" y2="312.077" gradientUnits="userSpaceOnUse">
<stop stop-color="#066F6C"/>
<stop offset="1" stop-color="#182F1F"/>
</linearGradient>
</defs>
</svg>
