<svg width="50" height="50" viewBox="0 0 50 50" fill="none" xmlns="http://www.w3.org/2000/svg">
<g id="fluent:person-28-filled">
<path id="Vector" d="M37.4997 28.5714C38.9205 28.5714 40.2831 29.1358 41.2878 30.1405C42.2925 31.1451 42.8569 32.5078 42.8569 33.9286V35.2053C42.8569 41.5928 35.339 46.4286 24.9997 46.4286C14.6604 46.4286 7.14258 41.8446 7.14258 35.2053V33.9286C7.14258 32.5078 7.70699 31.1451 8.71165 30.1405C9.71631 29.1358 11.0789 28.5714 12.4997 28.5714H37.4997ZM24.9997 3.57141C26.4067 3.57141 27.8 3.84854 29.0999 4.38699C30.3998 4.92543 31.581 5.71464 32.5759 6.70955C33.5708 7.70447 34.36 8.8856 34.8984 10.1855C35.4369 11.4854 35.714 12.8787 35.714 14.2857C35.714 15.6927 35.4369 17.086 34.8984 18.3859C34.36 19.6858 33.5708 20.8669 32.5759 21.8618C31.581 22.8568 30.3998 23.646 29.0999 24.1844C27.8 24.7228 26.4067 25 24.9997 25C22.1581 25 19.4329 23.8712 17.4236 21.8618C15.4143 19.8525 14.2854 17.1273 14.2854 14.2857C14.2854 11.4441 15.4143 8.71887 17.4236 6.70955C19.4329 4.70023 22.1581 3.57141 24.9997 3.57141Z" fill="#066F6C"/>
</g>
</svg>
